<svg xmlns="http://www.w3.org/2000/svg" width="58.115" height="37.5" viewBox="0 0 58.115 37.5">
  <g id="logo" transform="translate(-138 -29)">
    <path id="Path_2" data-name="Path 2" d="M33.911,30.469v3.516H29.224V30.469ZM29.224,37.5h8.2V0H17.5V2.2l-.82-.22L12.664.908,9.272,0,8.364,3.4,7.559,6.416,7.1,8.115l-.454,1.7L2.637,24.8l-.454,1.7-.454,1.7L.923,31.216,0,34.6l3.4.908,4.021,1.077,3.391.916.908-3.4.806-3.018.454-1.7.454-1.7,4.021-14.978.051-.183V37.5H29.224Zm-3.516-3.516H21.021V30.469h4.688ZM29.224,3.516h4.688V7.031H29.224Zm0,7.031h4.688V26.953H29.224ZM25.708,7.031H21.021V3.516h4.688ZM21.021,26.953V10.547h4.688V26.953ZM8.328,33.193,4.307,32.117,5.112,29.1l4.021,1.077Zm1.721-6.409L6.021,25.708l4.014-14.993,4.028,1.077L10.049,26.777ZM14.971,8.4,10.95,7.324l.806-3.018,4.021,1.077L14.971,8.4Z" transform="translate(138 29)" fill="#979797"/>
    <path id="Subtraction_1" data-name="Subtraction 1" d="M435.5,111H431v-6.159h3.132a7,7,0,0,0,4.541-1.345,4.516,4.516,0,0,0,1.643-3.676,4.211,4.211,0,0,0-1.617-3.493,7.185,7.185,0,0,0-4.516-1.268H431V88.848h2.278a6.154,6.154,0,0,0,4.076-1.256,4.3,4.3,0,0,0,1.488-3.455,3.458,3.458,0,0,0-1.527-3.066,8.339,8.339,0,0,0-4.581-1.022H431V73.89h3.753c4.121,0,7.334.766,9.549,2.277a7.355,7.355,0,0,1,3.338,6.418,7.629,7.629,0,0,1-2.031,5.253,10.714,10.714,0,0,1-5.189,3.131v.1A10.334,10.334,0,0,1,446.747,94a8.213,8.213,0,0,1,2.368,5.926,9.947,9.947,0,0,1-3.649,8.087C443.045,109.994,439.693,111,435.5,111Z" transform="translate(-253 -44.89)" fill="#f15a24"/>
  </g>
</svg>
